<?xml version="1.0" standalone="no"?>
<!DOCTYPE svg PUBLIC "-//W3C//DTD SVG 20010904//EN"
 "http://www.w3.org/TR/2001/REC-SVG-20010904/DTD/svg10.dtd">
<svg version="1.0" xmlns="http://www.w3.org/2000/svg"
 width="1112.000000pt" height="1112.000000pt" viewBox="0 0 1112.000000 1112.000000"
 preserveAspectRatio="xMidYMid meet">
<metadata>
Created by potrace 1.11, written by Peter Selinger 2001-2013
</metadata>
<g transform="translate(0.000000,1112.000000) scale(0.100000,-0.100000)"
fill="#000000" stroke="none">
<path d="M4149 9376 c-2 -2 -26 -6 -54 -9 -56 -7 -92 -13 -150 -29 -22 -5 -41
-10 -43 -9 -1 1 -35 -15 -75 -35 -83 -42 -168 -124 -215 -208 -18 -30 -33 -61
-34 -68 -2 -7 -6 -15 -10 -18 -4 -3 -15 -47 -26 -99 l-18 -93 -41 54 c-55 72
-144 161 -201 200 -26 17 -48 35 -50 40 -2 4 -7 8 -11 8 -4 0 -43 20 -85 44
-81 46 -269 123 -366 150 -120 34 -227 49 -347 50 -40 1 -73 5 -73 9 0 5 -4 6
-9 2 -6 -3 -58 -7 -117 -10 -59 -2 -114 -7 -123 -9 -9 -3 -36 -8 -61 -11 -25
-3 -52 -7 -60 -10 -8 -2 -26 -6 -40 -9 -14 -2 -54 -12 -90 -21 -36 -10 -71
-18 -77 -18 -7 0 -13 -5 -13 -10 0 -6 -3 -8 -6 -4 -8 7 -62 -12 -184 -66 -30
-13 -58 -24 -62 -26 -9 -2 -112 -58 -153 -83 -16 -10 -37 -21 -45 -25 -22 -10
-181 -120 -207 -143 -13 -11 -27 -20 -31 -20 -4 0 -14 -9 -22 -20 -8 -11 -18
-20 -22 -20 -18 0 -351 -324 -425 -415 -23 -27 -58 -70 -78 -94 -47 -57 -161
-229 -203 -306 -75 -137 -198 -416 -206 -467 -1 -7 -4 -17 -7 -23 -6 -10 -19
-55 -25 -90 -2 -11 -13 -54 -24 -95 -11 -41 -22 -91 -25 -110 -3 -19 -7 -46
-10 -60 -8 -39 -15 -91 -20 -146 l-4 -51 214 1 c118 1 215 -3 215 -7 0 -5 5
-5 12 -1 16 10 228 11 228 1 0 -5 5 -5 12 -1 6 4 246 8 532 9 287 1 527 2 534
3 6 1 12 9 12 18 0 15 42 114 61 144 5 8 12 22 16 30 22 51 88 135 165 209 68
67 77 75 109 91 13 7 26 16 29 20 11 15 200 100 225 100 3 0 6 0 8 1 1 0 14 2
28 4 15 2 44 6 65 10 22 4 62 6 89 6 54 -2 59 -2 123 -1 23 0 46 -1 51 -4 4
-3 30 -8 57 -12 78 -10 186 -56 277 -117 142 -95 274 -271 342 -458 l16 -46
425 1 c233 1 424 -3 424 -7 0 -5 5 -5 12 -1 16 10 228 11 228 1 0 -5 5 -5 12
-1 6 4 171 8 367 8 l354 1 0 825 c-1 763 -5 965 -19 1045 -11 63 -56 182 -91
240 -87 144 -203 209 -428 241 -22 3 -51 8 -65 11 -31 6 -485 14 -491 9z"/>
<path d="M10188 9365 c-3 -3 -43 -8 -89 -10 -136 -5 -267 -32 -354 -71 -22
-10 -42 -18 -45 -19 -3 0 -30 -17 -60 -36 -119 -78 -200 -206 -225 -358 l-7
-44 -37 44 c-43 52 -182 189 -193 189 -3 0 -13 6 -20 13 -46 43 -288 178 -288
160 0 -3 -6 -1 -12 4 -29 23 -255 81 -383 98 -22 3 -123 8 -225 10 -172 4
-264 -3 -400 -30 -49 -10 -53 -10 -75 -18 -11 -3 -31 -8 -45 -11 -50 -9 -228
-78 -330 -128 -90 -45 -285 -160 -300 -178 -3 -4 -27 -21 -54 -40 -27 -18 -57
-40 -66 -49 -9 -9 -38 -34 -65 -56 -126 -103 -455 -437 -455 -461 0 -3 -9 -14
-20 -26 -11 -12 -32 -40 -47 -62 -15 -23 -30 -43 -33 -46 -3 -3 -26 -36 -51
-75 -41 -62 -69 -110 -129 -220 -48 -90 -167 -385 -176 -440 -1 -11 -12 -51
-23 -88 -11 -38 -23 -85 -26 -105 -8 -43 -13 -67 -15 -67 -1 0 -3 -13 -5 -30
-2 -16 -6 -48 -9 -70 -3 -22 -8 -63 -11 -91 l-6 -51 141 1 c77 0 140 -3 140
-7 0 -5 5 -5 12 -1 16 10 228 11 228 1 0 -5 5 -5 12 -1 16 10 708 11 708 1 0
-5 5 -5 12 -1 17 11 228 11 228 0 0 -5 6 -4 13 1 6 5 67 8 134 7 l121 -2 14
32 c7 17 12 34 10 39 -1 4 3 7 8 7 6 0 10 7 10 15 0 8 14 37 30 65 17 28 30
55 30 60 0 4 4 10 8 12 4 2 23 24 42 51 18 26 37 47 42 47 4 0 8 5 8 10 0 12
19 31 90 91 134 111 257 163 440 186 77 10 230 3 300 -13 42 -9 55 -12 55 -14
0 -1 8 -3 18 -5 30 -6 144 -62 194 -96 63 -42 159 -139 215 -215 40 -55 116
-196 122 -227 10 -45 -5 -44 376 -43 198 1 360 -3 360 -7 0 -5 5 -5 12 -1 17
11 228 11 228 0 0 -5 5 -5 13 0 6 5 197 9 423 8 l411 -1 -2 891 c-2 490 -5
907 -9 926 -16 100 -39 168 -88 261 -31 58 -118 159 -138 159 -5 0 -15 7 -23
14 -15 15 -120 54 -167 62 -52 10 -77 14 -130 24 -30 5 -95 12 -144 15 -49 3
-93 8 -97 11 -5 3 -9 0 -9 -6 0 -7 -6 -8 -16 -2 -9 5 -31 6 -50 2 -18 -4 -36
-4 -41 1 -5 5 -12 7 -15 4z"/>
<path d="M32 6362 c-6 -2 -9 -9 -7 -15 2 -7 6 -28 9 -47 29 -183 94 -397 177
-577 10 -24 19 -47 19 -53 0 -5 5 -10 10 -10 6 0 9 -3 8 -7 -2 -9 42 -105 52
-113 3 -3 14 -21 24 -40 63 -125 197 -311 321 -449 46 -50 248 -253 291 -292
117 -104 404 -309 433 -309 5 0 11 -3 13 -7 4 -10 132 -73 147 -73 6 0 11 -4
11 -10 0 -5 7 -10 15 -10 9 0 34 -9 56 -19 22 -11 53 -23 69 -26 17 -4 30 -11
30 -17 0 -6 3 -9 6 -6 3 4 20 2 37 -3 55 -17 170 -46 212 -54 22 -4 50 -9 62
-11 51 -10 146 -15 263 -16 521 -4 935 155 1182 452 18 22 35 40 38 40 7 0 4
-390 -4 -455 -9 -83 -15 -107 -51 -225 -16 -52 -92 -219 -104 -230 -10 -9 -51
-69 -51 -75 0 -12 -163 -185 -175 -185 -3 0 -26 -15 -52 -33 -41 -29 -66 -43
-93 -52 -3 -1 -18 -7 -35 -14 -43 -19 -123 -41 -175 -48 -81 -12 -278 -6 -372
12 -16 3 -38 7 -50 9 -48 9 -124 27 -138 33 -8 3 -22 7 -30 8 -28 5 -145 47
-195 70 -27 12 -57 26 -65 29 -8 3 -37 19 -65 36 -27 16 -61 35 -75 42 -14 7
-27 15 -30 18 -3 3 -32 23 -65 45 -33 22 -67 47 -76 56 -33 32 -108 79 -159
98 -45 17 -133 37 -150 34 -3 0 -31 -3 -62 -7 -68 -7 -149 -44 -201 -91 -21
-19 -40 -35 -42 -35 -6 0 -163 -159 -249 -251 -164 -177 -240 -322 -275 -529
-29 -173 -18 -243 55 -355 35 -54 126 -150 189 -200 53 -42 247 -176 265 -183
8 -3 26 -13 40 -22 69 -47 281 -154 405 -205 50 -20 101 -42 115 -47 50 -21
66 -27 105 -39 22 -7 42 -14 45 -14 3 -1 32 -9 64 -19 61 -18 206 -55 241 -62
11 -2 36 -6 55 -9 19 -2 46 -7 60 -11 40 -10 106 -18 235 -30 147 -14 606 -7
633 10 4 2 26 7 48 10 63 7 192 35 289 61 33 9 67 18 75 20 26 7 73 23 130 45
30 12 60 23 65 24 16 5 47 17 95 39 25 11 47 21 50 22 10 2 173 86 218 112 78
44 265 170 301 202 19 17 37 31 40 31 3 0 25 17 48 38 23 20 72 64 109 97 64
57 169 162 214 215 45 53 56 66 91 110 55 68 156 223 198 304 21 39 42 80 48
91 6 11 19 38 28 60 9 22 25 58 35 80 10 22 20 49 23 60 3 11 15 47 27 80 33
94 73 252 86 339 3 22 7 43 9 46 2 3 6 30 9 60 4 30 8 69 10 85 15 111 19 361
20 1302 l1 1063 -35 0 c-19 -1 -56 1 -83 2 -26 2 -47 0 -47 -4 0 -4 -11 -3
-24 2 -13 5 -26 7 -28 5 -5 -5 -108 -7 -141 -2 -15 2 -30 0 -33 -5 -3 -4 -10
-6 -15 -2 -6 3 -41 5 -77 4 -82 -2 -81 -2 -115 3 -15 2 -30 1 -33 -4 -2 -4
-11 -6 -18 -3 -21 8 -156 10 -156 2 0 -4 -11 -3 -24 2 -13 5 -26 7 -28 5 -5
-5 -108 -7 -141 -2 -15 2 -30 0 -33 -5 -3 -4 -10 -6 -15 -2 -6 3 -41 5 -77 4
-82 -2 -81 -2 -115 3 -15 2 -30 1 -33 -4 -2 -4 -11 -6 -18 -3 -21 8 -156 10
-156 2 0 -4 -11 -3 -24 2 -13 5 -26 7 -28 5 -5 -5 -108 -7 -141 -2 -15 2 -30
1 -32 -3 -3 -4 -19 -5 -37 -1 -18 4 -56 4 -85 1 -29 -3 -58 -3 -65 1 -12 7
-58 -9 -58 -21 0 -31 -211 -263 -250 -275 -11 -4 -20 -10 -20 -14 0 -19 -205
-108 -270 -117 -8 -1 -35 -6 -60 -11 -52 -11 -202 -10 -275 2 -199 30 -408
153 -535 314 -14 17 -30 37 -36 44 -5 7 -22 29 -35 49 -14 21 -28 36 -31 33
-2 -3 -22 -5 -44 -5 -21 0 -65 1 -97 1 -31 0 -61 -3 -66 -6 -6 -3 -12 -1 -16
5 -4 6 -10 8 -14 6 -10 -6 -99 -8 -134 -3 -15 2 -30 1 -33 -4 -2 -4 -11 -6
-18 -3 -21 8 -156 10 -156 2 0 -4 -11 -3 -24 2 -13 5 -26 7 -28 5 -5 -5 -108
-7 -141 -2 -15 2 -30 0 -33 -5 -3 -4 -10 -6 -15 -2 -6 3 -41 5 -77 4 -82 -2
-81 -2 -115 3 -15 2 -30 1 -33 -4 -2 -4 -11 -6 -18 -3 -21 8 -156 10 -156 2 0
-4 -11 -3 -24 2 -13 5 -26 7 -28 5 -5 -5 -108 -7 -141 -2 -15 2 -30 0 -33 -5
-3 -4 -10 -6 -15 -2 -6 3 -41 5 -77 4 -82 -2 -81 -2 -115 3 -15 2 -29 1 -32
-3 -2 -4 -24 -4 -48 0 -24 3 -48 5 -55 2z"/>
<path d="M6004 6361 c-2 -2 -20 -4 -40 -3 -34 1 -36 0 -29 -26 4 -15 9 -40 11
-57 3 -16 7 -40 9 -52 3 -13 6 -25 6 -28 2 -24 57 -210 83 -285 61 -170 73
-201 85 -213 6 -6 11 -16 11 -22 0 -6 21 -51 47 -100 25 -50 51 -100 57 -112
6 -13 14 -23 19 -23 4 0 7 -5 7 -12 0 -6 30 -57 67 -112 74 -110 73 -109 106
-147 12 -15 36 -44 52 -64 84 -106 251 -275 402 -406 55 -48 220 -169 230
-169 6 0 14 -7 17 -16 3 -8 10 -13 15 -10 5 4 11 2 13 -2 4 -10 105 -71 184
-110 54 -27 243 -109 262 -113 9 -2 18 -5 77 -23 79 -24 167 -43 235 -51 19
-2 35 -4 35 -5 0 -9 181 -23 290 -23 95 0 243 9 285 18 14 3 42 8 64 10 21 3
73 15 115 26 42 11 84 22 94 24 9 2 23 7 30 12 6 4 19 8 27 10 8 1 42 15 75
31 33 16 70 32 83 36 12 4 22 12 22 17 0 5 5 9 11 9 31 0 214 141 291 225 21
22 38 38 39 35 1 -3 3 -504 5 -1115 2 -1106 4 -1202 25 -1304 14 -71 65 -197
97 -241 66 -91 169 -162 272 -186 47 -11 49 -11 58 -14 4 -1 11 -2 15 -1 5 1
25 -3 45 -8 73 -19 130 -23 337 -23 204 0 247 2 330 17 22 4 47 9 55 10 8 2
44 11 80 20 36 10 71 18 78 18 6 0 12 4 12 9 0 4 7 8 16 8 27 0 164 106 164
127 0 3 6 14 14 22 45 53 102 202 114 301 4 30 7 962 7 2070 l0 2015 -567 0
c-313 0 -568 4 -568 8 0 5 -5 5 -11 1 -11 -7 -382 -7 -431 -1 -16 3 -28 1 -28
-2 0 -4 -12 -6 -27 -5 -35 3 -68 4 -113 3 -19 -1 -39 0 -45 1 -42 9 -71 -3
-97 -41 -16 -21 -28 -44 -28 -49 0 -6 -4 -10 -8 -10 -4 0 -15 -12 -24 -27 -42
-72 -175 -188 -278 -245 -45 -24 -145 -64 -145 -58 0 2 -9 -2 -20 -8 -63 -33
-375 -34 -436 -1 -10 5 -26 9 -36 9 -11 0 -38 9 -61 20 -22 11 -45 20 -50 20
-4 0 -29 13 -55 30 -26 16 -47 26 -47 22 0 -4 -4 -2 -8 3 -4 6 -24 23 -46 39
-72 54 -188 182 -251 279 -7 11 -31 17 -82 19 -40 2 -73 1 -73 -3 0 -3 -17 -3
-37 0 -21 4 -62 4 -90 1 -29 -3 -59 -2 -67 2 -8 5 -17 4 -21 -2 -4 -6 -11 -7
-17 -4 -13 9 -124 8 -137 0 -5 -4 -12 -2 -16 4 -4 6 -10 8 -14 6 -4 -3 -29 -5
-57 -6 -88 -1 -178 -1 -204 0 -112 5 -240 4 -240 -2 0 -4 -11 -3 -24 2 -13 5
-26 7 -28 5 -5 -5 -108 -7 -141 -2 -15 2 -30 0 -33 -5 -3 -4 -10 -6 -15 -2 -6
3 -41 5 -77 4 -82 -2 -81 -2 -115 3 -15 2 -30 1 -33 -4 -2 -4 -11 -6 -18 -3
-16 6 -186 11 -192 5z"/>
</g>
</svg>
