<svg xmlns="http://www.w3.org/2000/svg" viewBox="0 0 138.73 95.38"><title>Asset 1</title><g id="Layer_2" data-name="Layer 2"><g id="Layer_1-2" data-name="Layer 1"><path d="M65.21,6.55a10.06,10.06,0,0,0-1.13-3.22A5.34,5.34,0,0,0,60.86.75,24.83,24.83,0,0,0,53.68,0C50.41,0,48,.61,46.56,1.82A7.69,7.69,0,0,0,44,7.18,16.2,16.2,0,0,0,41.9,4.72a17.05,17.05,0,0,0-4.85-2.9A19,19,0,0,0,29.24.25q-11,0-20.16,9.7A31.83,31.83,0,0,0,0,29.65H21.84a11.75,11.75,0,0,1,2.61-4.58,10.11,10.11,0,0,1,7.94-3.4,9.65,9.65,0,0,1,7.81,3.46,12.61,12.61,0,0,1,2.49,4.52H65.4V10.83A34,34,0,0,0,65.21,6.55Zm-23.5,31.1a13.21,13.21,0,0,1-1.64,2.22,9.81,9.81,0,0,1-7.62,3.34,10.53,10.53,0,0,1-7.81-3.27,12.16,12.16,0,0,1-1.79-2.29H.27A31.73,31.73,0,0,0,9,55q9.12,9.65,19.59,9.64t15.24-6.3v3.78a14.06,14.06,0,0,1-3,9.08A9.55,9.55,0,0,1,33,75,21,21,0,0,1,19.91,70.3a6,6,0,0,0-3.65-1.51,5,5,0,0,0-3.09,1,31.33,31.33,0,0,0-3.71,3.65,12,12,0,0,0-3.78,8.7q0,3.78,8.69,8.44a38.13,38.13,0,0,0,18.27,4.66,33.42,33.42,0,0,0,22.68-8.88Q65.4,77.49,65.4,63V37.65Z"/><path d="M138.54,6.8a10.09,10.09,0,0,0-1.13-3.21A5.32,5.32,0,0,0,134.19,1a24.23,24.23,0,0,0-7-.75q-9.08,0-9.83,6.68Q112.53.38,102.25.37T82.79,10.08a31.73,31.73,0,0,0-9.07,19.57H95.59a11.53,11.53,0,0,1,2.57-4.39A10.12,10.12,0,0,1,106,21.92a9.58,9.58,0,0,1,7.75,3.47,12.54,12.54,0,0,1,2.41,4.26h22.54V11.08A34.09,34.09,0,0,0,138.54,6.8ZM115.43,37.65a12.89,12.89,0,0,1-1.77,2.48,9.81,9.81,0,0,1-7.56,3.34,10.43,10.43,0,0,1-7.75-3.28,12.6,12.6,0,0,1-1.94-2.54H74a32.08,32.08,0,0,0,8.7,17.53q9.07,9.7,20.29,9.71,9.19,0,14.24-5.8V84.54a36.87,36.87,0,0,0,.18,4.29A10.4,10.4,0,0,0,118.51,92a5.28,5.28,0,0,0,3.21,2.58,20,20,0,0,0,6.18.76,20.57,20.57,0,0,0,6.23-.76,5.35,5.35,0,0,0,3.28-2.52A9.43,9.43,0,0,0,138.54,89a34,34,0,0,0,.19-4.28v-47Z"/></g></g></svg>